Coordinates
version=1
nRows=19
nColumns=36
inDegrees=yes

Units are S.I. units (second, meters, Newtons, ...)
If the header above contains a line with 'inDegrees', this indicates whether rotational values are in degrees (yes) or radians (no).

endheader
time	pelvis_tilt	pelvis_list	pelvis_rotation	pelvis_tx	pelvis_ty	pelvis_tz	hip_flexion_r	hip_adduction_r	hip_rotation_r	knee_angle_r	knee_angle_r_beta	ankle_angle_r	subtalar_angle_r	mtp_angle_r	hip_flexion_l	hip_adduction_l	hip_rotation_l	knee_angle_l	knee_angle_l_beta	ankle_angle_l	subtalar_angle_l	mtp_angle_l	lumbar_extension	lumbar_bending	lumbar_rotation	arm_flex_r	arm_add_r	arm_rot_r	elbow_flex_r	pro_sup_r	arm_flex_l	arm_add_l	arm_rot_l	elbow_flex_l	pro_sup_l
     29.78333330	     -2.67988919	      4.59529037	     -0.35725009	      1.11137206	      0.91313775	      0.72914774	    -11.57103362	     -4.98301012	      8.86152455	     20.44399286	      0.35681499	     13.21114066	     -0.44375062	     -7.49999987	     25.45929019	      2.66778025	     -5.09097484	     21.28538412	      0.37150004	      0.79936625	     -4.07722598	     -7.49999987	     -7.20647939	     -6.65894598	     12.18348590	      6.11505830	    -11.30448792	     13.75560101	     22.74583674	     83.87609405	      4.06453477	     -8.97975805	      1.32615198	     14.17059175	     79.90590131
     29.80000000	     -2.92575303	      4.55894482	     -0.38426422	      1.11301593	      0.91451867	      0.72753124	    -10.59202529	     -5.07703760	      9.18567494	     23.44047987	      0.40911355	     10.28687811	     -1.45312013	     -7.49999987	     24.84380673	      3.00813644	     -4.56507037	     21.83580535	      0.38110670	      1.18818787	     -4.59873898	     -7.49999987	     -6.52521326	     -6.56315140	     12.74966775	      5.11751827	    -10.99192755	     11.74926599	     22.12479957	     82.43944597	      4.08251683	     -8.87516267	      2.04676292	     13.26477255	     79.60683625
     29.81666670	     -3.06393217	      4.52015595	     -0.47924509	      1.11353727	      0.91633536	      0.72507534	     -9.11198153	     -5.07300204	      9.55075979	     27.30502907	      0.47656266	      6.98504734	     -2.49789390	     -7.49999987	     24.05471850	      3.27147761	     -4.17230054	     22.23971404	      0.38815623	      1.74648335	     -5.08813001	     -7.49999987	     -6.14035064	     -6.50028799	     12.77577506	      4.56504871	    -10.84815316	     11.68922557	     21.78277410	     82.32717677	      3.68443881	     -8.94342206	      2.20335372	     13.28816712	     79.55623301
     29.83333330	     -3.25465331	      4.42554855	     -0.64291969	      1.11376345	      0.91768566	      0.72044941	     -6.93572331	     -4.98839424	      9.83299560	     31.96005321	      0.55780816	      2.99901224	     -3.60112599	     -7.49999987	     23.22111648	      3.44893193	     -3.91700249	     22.46434830	      0.39207684	      2.38496430	     -5.41841481	     -7.49999987	     -5.69543347	     -6.34676409	     12.73392595	      4.20413239	    -10.66940134	     11.59703609	     21.17456542	     82.18023471	      3.31374899	     -8.99827173	      2.41549652	     13.46243007	     79.48513851
     29.85000000	     -3.26427518	      4.35100385	     -0.90728278	      1.11589136	      0.91866322	      0.71393996	     -4.37344411	     -4.97350464	      9.97922486	     37.23756465	      0.64991811	     -1.27766138	     -4.61614166	     -7.49999987	     22.09430217	      3.66565982	     -3.81842167	     22.53151649	      0.39324915	      3.12037219	     -5.70203074	     -7.49999987	     -5.57637415	     -6.19717667	     12.50380058	      3.96119869	    -10.54024238	     11.59135857	     20.68455333	     82.01425416	      2.97391843	     -9.03209248	      2.56799340	     13.85648531	     79.35416018
     29.86666670	     -3.31913413	      4.21207659	     -1.18651688	      1.12063053	      0.91894612	      0.70789222	     -1.43545564	     -4.88950485	     10.07043134	     42.69939284	      0.74524499	     -5.66266182	     -5.86980103	     -7.49999987	     20.99436885	      3.84360050	     -3.74426881	     22.60427711	      0.39451906	      4.04639171	     -5.96813709	     -7.49999987	     -5.36511889	     -5.90048989	     12.15686685	      3.73691024	    -10.41719958	     11.78797633	     19.85044197	     81.88695303	      2.61345104	     -9.00065778	      2.76274627	     14.34240665	     79.19265512
     29.88333330	     -3.09788750	      4.11831319	     -1.57586242	      1.12509195	      0.91896585	      0.70538260	      1.31619181	     -4.83631911	     10.17213705	     47.94279277	      0.83675959	     -8.95199405	     -6.80076998	     -7.49999987	     19.59282648	      4.01193261	     -3.78718892	     22.60213401	      0.39448166	      5.02026741	     -6.39673678	     -7.49999987	     -5.68821626	     -5.77104606	     11.64784312	      3.51867789	    -10.33252443	     11.97831802	     19.47845299	     81.84159803	      2.36825114	     -8.95551482	      2.93236580	     14.56098409	     79.13982432
     29.90000000	     -3.26565173	      3.84815553	     -1.85699078	      1.12812905	      0.91724639	      0.70632199	      4.28477021	     -4.48654908	     10.08685141	     52.52636525	      0.91675802	    -11.45680534	     -7.77373105	     -7.49999987	     18.61434952	      3.90831739	     -3.78635009	     22.55606607	      0.39367762	      5.97276068	     -6.73998476	     -7.49999987	     -5.42977049	     -5.46021058	     11.09285968	      3.31897261	    -10.15053571	     12.50144297	     18.57153588	     81.96654119	      2.08354301	     -8.94642596	      3.34078370	     14.68623344	     79.22652317
     29.91666670	     -3.12269320	      3.50275259	     -2.08889480	      1.12952297	      0.91489233	      0.70787900	      6.69922936	     -4.01031331	      9.81587314	     56.33274456	      0.98319187	    -12.13258303	     -8.22231567	     -7.49999987	     17.27555407	      3.65252873	     -3.74546488	     22.38896924	      0.39076123	      6.85159029	     -7.06836368	     -7.49999987	     -5.76733082	     -5.19943237	     10.39155868	      3.13383176	    -10.03346503	     12.75343920	     18.29873787	     82.04450600	      2.07664341	     -8.93533469	      3.61538273	     14.72905116	     79.32662592
     29.93333330	     -3.47077407	      3.06653339	     -2.24809891	      1.12989799	      0.91309778	      0.70743029	      9.57438918	     -3.44183192	      9.44617987	     59.41375869	      1.03696571	    -11.29739395	     -8.94285759	     -7.49999987	     16.41559421	      3.20844851	     -3.73606019	     22.14397247	      0.38648523	      7.57947625	     -7.00967944	     -7.49999987	     -5.35644904	     -4.76763999	      9.40531525	      3.26215104	     -9.84851458	     14.17107345	     17.27401408	     82.35598176	      1.82524195	     -9.06682767	      4.74672283	     14.81136850	     79.65093477
     29.95000000	     -3.40166834	      2.51577578	     -2.36060558	      1.12869922	      0.91556881	      0.70467233	     12.00442236	     -2.89434697	      9.05419946	     61.55309252	      1.07430413	     -8.87321260	     -9.96808500	     -7.49999987	     15.05432395	      2.68130803	     -3.63200506	     21.79457383	      0.38038707	      8.13071620	     -6.90860261	     -7.49999987	     -5.74521947	     -4.24879950	      8.50283705	      3.18339730	     -9.88165082	     14.36505959	     17.46697182	     81.55434125	      1.91535926	     -9.01940770	      5.08068573	     15.30259067	     79.01284574
     29.96666670	     -3.55138714	      1.91580015	     -2.38126898	      1.12552130	      0.92216200	      0.70105287	     14.76472698	     -2.41213861	      8.73873924	     62.65229885	      1.09348890	     -5.75395519	    -11.48850036	     -7.49999987	     13.95664385	      2.13584413	     -3.48462834	     21.44796015	      0.37433752	      8.66112819	     -6.54611146	     -7.49999987	     -5.96063085	     -3.59444547	      7.63982858	      3.15585729	    -10.08099873	     15.16079890	     17.73657371	     82.52353833	      2.26724204	     -9.05339682	      6.89434502	     15.75130802	     80.19081419
     29.98333330	     -3.60952221	      1.21142154	     -2.25587122	      1.12064835	      0.93243808	      0.69777226	     17.30483047	     -1.97474090	      8.31957577	     62.41107701	      1.08927878	     -2.67045507	    -12.92109161	     -7.49999987	     12.74419858	      1.57869047	     -3.17337863	     20.95481275	      0.36573048	      9.06102623	     -6.19538008	     -7.49999987	     -6.44340695	     -2.70773819	      6.62120976	      3.27606001	    -10.24272369	     14.76454540	     18.10577941	     81.95298599	      2.70593095	     -8.80580816	      6.92431217	     16.43259509	     79.73506377
     30.00000000	     -3.70357772	      0.47855200	     -2.14829807	      1.11563715	      0.94339893	      0.69517777	     19.57077884	     -1.55005923	      7.85252777	     60.77035466	      1.06064278	     -0.48302986	    -14.50869967	     -7.49999987	     11.54254205	      0.96734468	     -3.10730518	     20.27064561	      0.35378951	      9.54713983	     -5.37511397	     -7.49999987	     -6.97307102	     -1.70474526	      5.68775409	      3.53129282	    -10.50987202	     14.50843020	     18.51458873	     81.82927673	      3.32862294	     -8.55582544	      7.41798396	     17.02120690	     79.70574339
     30.01666670	     -3.74485382	     -0.28191386	     -2.04449254	      1.11140631	      0.95016368	      0.69175859	     21.32210666	     -1.20160047	      7.22370453	     57.92559580	      1.01099237	      1.00387852	    -15.83997457	     -7.49999987	     10.29774765	      0.36455975	     -2.90422850	     19.44842754	      0.33943909	      9.69332045	     -4.91853224	     -7.49999987	     -7.62080134	     -0.56339563	      4.82792532	      3.93373768	    -10.87042792	     14.18729732	     18.91490282	     81.92640310	      4.13217210	     -8.18241733	      7.68765029	     17.45774581	     79.79896751
     30.03333330	     -3.78108458	     -0.92095443	     -2.17113881	      1.10759493	      0.95053684	      0.68770010	     22.72464674	     -0.98258328	      6.76324711	     54.27006392	      0.94719130	      1.60701999	    -17.33239931	     -7.49999987	      9.09276063	     -0.12800124	     -2.82374612	     18.59886173	      0.32461137	      9.72657758	     -4.74163489	     -7.49999987	     -8.37753517	      0.50599234	      4.17025144	      4.38834413	    -11.29473854	     13.91759808	     19.58793608	     80.31144838	      4.98516069	     -7.75032327	      7.73747828	     18.18350706	     78.25195525
     30.05000000	     -4.15621783	     -1.37926898	     -2.21081655	      1.10318483	      0.94643757	      0.68439331	     24.27692354	     -1.12107191	      6.09040602	     50.15736016	      0.87541108	      2.31992662	    -17.68079203	     -7.49999987	      8.47175726	     -0.41041457	     -2.57308413	     17.97710172	      0.31375962	     10.10260040	     -4.50470338	     -7.49999987	     -8.82076445	      1.37277771	      3.41645709	      5.00060252	    -11.68050731	     13.96348195	     19.93800080	     80.40611170	      6.26783869	     -7.34162626	      7.98246865	     18.60864839	     78.31991530
     30.06666670	     -4.29418982	     -1.72968862	     -2.29539219	      1.09758407	      0.94034102	      0.68328766	     25.48269976	     -1.35518700	      5.46417189	     45.72733426	      0.79809254	      2.67416582	    -17.76281150	     -7.49999987	      7.77568186	     -0.59379040	     -2.20706593	     17.54185026	      0.30616304	     10.82694092	     -4.43741480	     -7.49999987	     -9.76726451	      2.08937045	      2.53734525	      5.85004571	    -12.09023182	     14.10072245	     20.58567796	     80.62690693	      7.88697040	     -7.12466594	      8.40460538	     19.31709788	     78.50084096
     30.08333330	     -4.88086175	     -1.50094494	     -2.63196438	      1.09156150	      0.93235266	      0.68417068	     27.47015671	     -1.90578972	      5.45957276	     41.58268182	      0.72575471	      3.10069418	    -17.37405419	     -7.49999987	      7.73997068	     -0.26477188	     -2.12524962	     17.32503172	      0.30237885	     11.58053894	     -4.58725203	     -7.49999987	    -10.27468940	      1.95490153	      1.95783418	      6.58118132	    -12.18739787	     14.10516265	     21.26503880	     80.53547881	      9.68880673	     -7.15569576	      8.50969140	     20.31886103	     78.43200201
